<?xml version="1.0" encoding="utf-8"?>
<!-- Generator: Adobe Illustrator 23.0.1, SVG Export Plug-In . SVG Version: 6.00 Build 0)  -->
<svg version="1.1" id="Layer_1" xmlns="http://www.w3.org/2000/svg" xmlns:xlink="http://www.w3.org/1999/xlink" x="0px" y="0px"
	 viewBox="0 0 1000 1000" style="enable-background:new 0 0 1000 1000;" xml:space="preserve">
<style type="text/css">
	.st0{fill:#3A8C3C;}
</style>
<g>
	<g>
		<path class="st0" d="M833.3,582.7c-2.1-4.9-3-9.4-1.9-14.8c8-39.6,8.3-79.4,1.7-119.3c-29-176.1-194.9-299.5-371.2-275.7
			c-10.3,1.4-18.9-0.2-28.2-5.2c-74.5-39.8-165.6-26.1-226.2,33.4c-59.7,58.6-74.7,150.2-36.4,224.8c4,7.9,5.3,14.9,3.5,23.7
			c-3.7,17.9-4,36.2-4.8,55.3c0.6,10.6,0.8,22.2,2,33.6c19.9,190.8,194.8,324.7,385.1,294.9c5.8-0.9,10.7,0.1,15.9,2.7
			c36,18.1,74.6,22.6,113.5,16.3C813.4,832,884.3,701.2,833.3,582.7z M667.4,671.7c-21.4,24.3-48.3,39.9-78.8,48.7
			c-57.3,16.5-115.3,17-172.3-0.1c-52-15.6-90.3-47.8-105.5-101.8c-10.8-38.3,13.8-66.9,52-62.4c16.5,1.9,27.3,11.9,35,25.6
			c4.8,8.6,8.9,17.7,13.2,26.6c14.2,29,36.9,45.4,69.4,49c26.5,2.9,52.2,1,76.7-10.1c9.5-4.3,17.9-10.2,24.8-18.1
			c18.4-21.2,15-51.2-7.5-67.9c-21.8-16.1-47.9-20.4-73.3-26.1c-36.4-8.1-72.8-15.8-107-31c-35.4-15.8-64-38.6-73.3-78.6
			c-10.8-46.4,2.1-85.6,39.3-115.7c32.8-26.5,72.2-35.1,113-38.7c9.4-0.8,19-0.1,28.5-0.1c37.7-1,74.3,4,108.4,21.3
			c26,13.3,47.6,31.4,60.1,58.6c6.1,13.3,9.1,27.5,5.1,41.7c-4.8,17.2-16.5,29.2-34.3,32.8c-18.5,3.8-35.8,0.8-47.4-16.4
			c-5.5-8.2-10.9-16.5-15.9-25.1c-15.9-27.1-38.6-42.2-70.8-42.1c-14.7,0-29.3-0.4-43.7,3.1c-12.9,3.1-24.8,8.5-34.6,17.6
			c-17.5,16.2-16.8,38.5,1.8,53.4c12.3,9.8,26.8,15.2,41.9,19.1c35.3,9,70.7,17.4,106,26.6c19.2,5,37.5,12.5,55.3,21.5
			C715.8,524.5,709.9,623.3,667.4,671.7z"/>
	</g>
</g>
</svg>
